<?xml version="1.0" encoding="utf-8"?>
<!-- Generator: Adobe Illustrator 16.0.0, SVG Export Plug-In . SVG Version: 6.00 Build 0)  -->
<!DOCTYPE svg PUBLIC "-//W3C//DTD SVG 1.1//EN" "http://www.w3.org/Graphics/SVG/1.1/DTD/svg11.dtd">
<svg version="1.1" id="Layer_2" xmlns="http://www.w3.org/2000/svg" xmlns:xlink="http://www.w3.org/1999/xlink" x="0px" y="0px"
	 width="2025.202px" height="915.092px" viewBox="-514.782 16.271 2025.202 915.092"
	 enable-background="new -514.782 16.271 2025.202 915.092" xml:space="preserve">
<g id="Layer_3">
	<g>
		<path fill="none" stroke="#000000" stroke-width="15" stroke-linecap="round" stroke-miterlimit="10" d="M270.542,524.522
			c1.101,37.421,0,68.736,21.066,92.021c14.652,16.2,37.558,13.242,46.001,12.743"/>
		<path fill="none" stroke="#000000" stroke-width="15" stroke-linecap="round" stroke-miterlimit="10" d="M283.285,685.279
			c3.577,36.458,27.326,36.836,34.187,36.458c15.082-0.843,30.112-12.382,30.112-36.458c0-84.265-0.361-135.821,0-181.634"/>
		
			<line fill="none" stroke="#000000" stroke-width="15" stroke-linecap="round" stroke-miterlimit="10" x1="347.223" y1="392.244" x2="347.223" y2="480.499"/>
		<path fill="none" stroke="#000000" stroke-width="15" stroke-linecap="round" stroke-miterlimit="10" d="M347.223,434.531
			c0,0,49.939-56.595,84.334-21.221c8.942,9.2,13.603,19.054,13.603,34.549l1.479,145.571"/>
		<path fill="none" stroke="#000000" stroke-width="15" stroke-linecap="round" stroke-miterlimit="10" d="M445.159,599.914v54.875
			c25.709-4.299,41.616-21.616,40.275-35.477c-1.531-15.77-25.091-24.11-38.797-25.864c-23.25-2.976-47.067,9.991-58.383,29.939
			c-2.614,6.483-14.962,38.985,1.427,69.51c6.415,11.952,14.583,18.642,16.354,20.052c33.706,26.879,99.243,17.369,117.713-16.664
			c4.11-7.566,5.348-15.339,5.485-21.857"/>
		
			<line fill="none" stroke="#000000" stroke-width="15" stroke-linecap="round" stroke-miterlimit="10" x1="529.234" y1="558.332" x2="529.234" y2="672.777"/>
		<path fill="none" stroke="#000000" stroke-width="15" stroke-linecap="round" stroke-miterlimit="10" d="M626.982,585.313
			c-8.96-18.538-25.504-31.728-43.233-32.519c-26.208-1.17-53.93,24.832-54.515,61.72"/>
		<path fill="none" stroke="#000000" stroke-width="15" stroke-linecap="round" stroke-miterlimit="10" d="M642.321,605.435
			c17.489,13.964,42.58,14.686,60.069,0.705c10.129-8.083,16.337-19.812,16.337-33.362V427.24"/>
		<path fill="none" stroke="#000000" stroke-width="15" stroke-linecap="round" stroke-miterlimit="10" d="M718.728,440.447
			c-3.216-0.86-26.104-6.535-46.294,8.134c-2.185,1.582-25.229,18.934-21.617,46.002c3.233,24.196,24.936,35.22,26.604,36.027
			c19.863,9.665,38.607,1.737,41.29,0.551"/>
		<path fill="none" stroke="#000000" stroke-width="15" stroke-linecap="round" stroke-miterlimit="10" d="M718.728,427.24
			c0,0-3.422-55.718,39.089-55.718c38.349,0,34.789,28.822,34.394,139.416c-0.086,23.078,18.934,42.27,41.995,41.117
			c10.163-0.498,20.894-4.918,30.593-16.715"/>
	</g>
</g>
<path fill="none" stroke="#000000" stroke-width="15" stroke-linecap="round" stroke-miterlimit="10" d="M270.542,524.522
	c-1.014-14.497-0.155-54.308-19.759-68.907c-12.278-9.149-28.1-9.872-44.729,4.78c-15.701,13.844-16.423,35.064-16.268,38.436
	c1.135,23.267,17.249,34.342,27.343,54.686c7.756,15.615,10.335,49.098-6.655,62.081c-13.568,10.37-35.391,3.903-47.309-2.958
	c-29.527-16.99-30.301-54.772-30.301-57.369c0,0,1.53-23.25-29.286-23.112c-30.817,0.138-95.856-0.104-95.856-0.104
	c-379.333,0-483.333-478.007-483.333-478.007"/>
<path fill="none" stroke="#000000" stroke-width="15" stroke-linecap="round" stroke-miterlimit="10" d="M793.517,608.891
	c9.699,11.78,20.43,16.199,30.594,16.716c23.061,1.152,41.995-18.04,41.995-41.118c0-85.727-1.308-120.378-1.308-139.415
	c0,0,1.049-28.719,23.096-28.856c22.046-0.138,104.368,0,104.368,0v-0.061c379.334,0,483.334,478.006,483.334,478.006"/>
</svg>
